<svg id="visual" viewBox="0 0 900 600" width="100%" height="300" xmlns="http://www.w3.org/2000/svg" xmlns:xlink="http://www.w3.org/1999/xlink" version="1.1"><path d="M0 394L129 369L257 380L386 414L514 391L643 415L771 363L900 364L900 601L771 601L643 601L514 601L386 601L257 601L129 601L0 601Z" fill="#fc466b"></path><path d="M0 399L129 418L257 417L386 405L514 453L643 425L771 417L900 466L900 601L771 601L643 601L514 601L386 601L257 601L129 601L0 601Z" fill="#f52e8f"></path><path d="M0 498L129 449L257 463L386 476L514 443L643 487L771 503L900 472L900 601L771 601L643 601L514 601L386 601L257 601L129 601L0 601Z" fill="#dc30b6"></path><path d="M0 489L129 523L257 514L386 483L514 518L643 500L771 507L900 494L900 601L771 601L643 601L514 601L386 601L257 601L129 601L0 601Z" fill="#ab47dc"></path><path d="M0 536L129 573L257 530L386 529L514 554L643 528L771 553L900 552L900 601L771 601L643 601L514 601L386 601L257 601L129 601L0 601Z" fill="#3f5efb"></path></svg>